<svg width="26" height="26" viewBox="0 0 26 26" fill="none" xmlns="http://www.w3.org/2000/svg">
<path d="M19.1428 7.28582H20.2857M5.99998 1.57153H19.7143C22.239 1.57153 24.2857 3.61823 24.2857 6.14296V19.8572C24.2857 22.382 22.239 24.4287 19.7143 24.4287H5.99998C3.47525 24.4287 1.42855 22.382 1.42855 19.8572V6.14296C1.42855 3.61823 3.47525 1.57153 5.99998 1.57153ZM12.8571 17.5715C10.3324 17.5715 8.28569 15.5248 8.28569 13.0001C8.28569 10.4754 10.3324 8.42868 12.8571 8.42868C15.3819 8.42868 17.4285 10.4754 17.4285 13.0001C17.4285 15.5248 15.3819 17.5715 12.8571 17.5715Z" stroke="white" stroke-width="2"/>
</svg>
