<svg width="200" height="77" viewBox="0 0 200 77" fill="none" xmlns="http://www.w3.org/2000/svg">
<path d="M26.78 19.9235C26.7244 21.3966 26.2372 22.8209 25.379 24.0189C24.5207 25.217 23.3294 26.136 21.9532 26.6616C20.577 27.1872 19.0768 27.2962 17.6392 26.975C16.2016 26.6537 14.8901 25.9165 13.868 24.855C12.8459 23.7935 12.1583 22.4546 11.8908 21.005C11.6232 19.5553 11.7876 18.059 12.3634 16.7021C12.9392 15.3452 13.9009 14.1878 15.129 13.3738C16.3571 12.5599 17.7973 12.1253 19.2703 12.1243C20.2751 12.1427 21.2665 12.3591 22.1878 12.7611C23.109 13.1631 23.9422 13.7427 24.6395 14.467C25.3369 15.1912 25.8849 16.0459 26.2522 16.9822C26.6194 17.9184 26.7988 18.9179 26.78 19.9235Z" fill="#283745"/>
<path d="M0.566736 17.4419C1.24724 14.9341 2.3493 12.5604 3.82568 10.4226C2.97565 14.4158 3.55229 18.5809 5.45516 22.1924C6.58464 24.3827 7.93796 26.4499 9.49341 28.3609C12.469 31.8351 19.0577 36.7274 22.0333 39.1381L29.8264 45.4484C29.8264 45.4484 39.0365 52.5386 41.5161 60.4797C42.3175 63.3184 42.4071 66.3111 41.7768 69.1927C41.1466 72.0743 39.816 74.7559 37.9029 77C37.9029 77 39.8158 70.9733 36.6277 65.2302C35.451 62.9686 34.0506 60.8309 32.4477 58.849C30.5349 56.5801 26.2132 53.0349 22.8126 50.4116L20.0496 48.2845L18.6326 47.2919C16.5072 45.732 12.3273 42.3996 12.3273 42.3996C12.3273 42.3996 3.04637 34.8839 0.566736 26.9429C-0.17703 23.8196 -0.17703 20.5652 0.566736 17.4419Z" fill="#D82E4A"/>
<path d="M34.9981 16.8039C35.4768 15.2662 35.7158 13.6639 35.7066 12.0534C35.6358 9.64273 35.069 8.36647 32.7311 6.1685C30.3931 3.97052 30.5348 4.18323 29.8263 2.97789C29.3713 2.0532 29.1522 1.0301 29.1887 0C28.3474 1.28456 27.9038 2.78913 27.9135 4.32503C27.9843 6.02669 28.6928 7.30295 30.5348 8.8628C31.7628 9.79822 32.8591 10.8953 33.7938 12.1243C34.9273 13.6841 34.9981 16.8039 34.9981 16.8039Z" fill="#283745"/>
<path d="M36.486 12.1243C36.486 12.1243 36.7694 17.0874 32.802 24.0359C28.8346 30.9843 19.412 36.0893 19.412 36.0893L25.5756 41.0525C25.5756 41.0525 32.3061 36.1602 35.8484 29.7081C37.511 26.6378 38.3873 23.203 38.3989 19.7108C38.2742 17.0795 37.6238 14.4998 36.486 12.1243Z" fill="#283745"/>
<path d="M17.995 47.7882L11.9022 43.0377C9.97312 45.216 8.52468 47.777 7.6514 50.5534C7.04238 52.7937 6.7561 55.1096 6.80125 57.4309C6.7304 60.7633 8.28903 65.5138 8.28903 65.5138C8.14882 64.0299 8.31768 62.5331 8.78495 61.1178C9.35859 59.3635 10.1186 57.6758 11.052 56.0838C13.2483 52.3968 17.995 47.7882 17.995 47.7882Z" fill="#283745"/>
<path d="M16.0822 77C16.7282 75.1803 17.0402 73.2587 17.0032 71.3279C16.8615 69.3426 16.4364 67.7118 14.1693 65.6557C11.9022 63.5995 11.2646 62.7487 10.9812 61.756C10.6876 60.862 10.5206 59.9312 10.4853 58.9908C10.4853 58.9908 7.65141 64.3794 9.70596 67.8537C11.7605 71.3279 12.1147 70.9734 14.0984 73.5967C14.9147 74.6333 15.5824 75.7788 16.0822 77Z" fill="#283745"/>
<path d="M71.13 36.0184C71.13 40.2016 67.7294 42.8959 63.4786 42.8959H53.6309V19.3563H62.8409C66.95 19.3563 70.2798 22.0506 70.2798 26.0921C70.3003 26.9646 70.1266 27.8309 69.7712 28.628C69.4159 29.4251 68.8878 30.1331 68.2253 30.7007C69.1258 31.262 69.8663 32.0463 70.3752 32.9779C70.884 33.9095 71.144 34.9568 71.13 36.0184ZM59.0152 24.3904V28.5736H62.8409C63.1134 28.5836 63.385 28.5372 63.6387 28.4373C63.8925 28.3375 64.123 28.1864 64.3158 27.9935C64.5086 27.8005 64.6596 27.5699 64.7593 27.3159C64.859 27.062 64.9054 26.7902 64.8955 26.5175C64.905 26.2415 64.8589 25.9665 64.7599 25.7088C64.6609 25.4511 64.5111 25.216 64.3193 25.0175C64.1276 24.819 63.8979 24.6612 63.6439 24.5534C63.3899 24.4457 63.1168 24.3902 62.8409 24.3904H59.0152ZM65.7456 35.593C65.7555 35.2923 65.7036 34.9929 65.5931 34.7132C65.4827 34.4334 65.3161 34.1794 65.1036 33.9667C64.891 33.754 64.6372 33.5872 64.3577 33.4767C64.0781 33.3662 63.7789 33.3142 63.4786 33.3241H59.0152V37.8619H63.4786C63.7817 37.8829 64.0858 37.8386 64.3703 37.732C64.6549 37.6254 64.9133 37.4589 65.1282 37.2439C65.343 37.0289 65.5093 36.7703 65.6158 36.4855C65.7224 36.2007 65.7666 35.8963 65.7456 35.593Z" fill="#283745"/>
<path d="M81.1903 19.3563V42.8959H75.8059V19.3563H81.1903Z" fill="#283745"/>
<path d="M85.7953 31.1261C85.7953 28.7001 86.5141 26.3286 87.8608 24.3114C89.2076 22.2943 91.1218 20.7221 93.3614 19.7937C95.601 18.8653 98.0653 18.6224 100.443 19.0957C102.82 19.569 105.004 20.7372 106.718 22.4527C108.432 24.1681 109.6 26.3537 110.073 28.7331C110.546 31.1125 110.303 33.5788 109.375 35.8201C108.448 38.0615 106.877 39.9772 104.861 41.325C102.845 42.6728 100.476 43.3922 98.0517 43.3922C96.4369 43.4112 94.8346 43.107 93.339 42.4973C91.8434 41.8876 90.4847 40.9847 89.3427 39.8419C88.2008 38.6991 87.2987 37.3393 86.6895 35.8425C86.0803 34.3458 85.7763 32.7422 85.7953 31.1261ZM104.853 31.1261C104.95 30.1691 104.846 29.2022 104.547 28.288C104.248 27.3738 103.76 26.5326 103.116 25.8187C102.472 25.1048 101.685 24.5341 100.807 24.1436C99.9281 23.753 98.9775 23.5512 98.0163 23.5512C97.0551 23.5512 96.1045 23.753 95.2261 24.1436C94.3477 24.5341 93.5609 25.1048 92.9166 25.8187C92.2722 26.5326 91.7847 27.3738 91.4856 28.288C91.1864 29.2022 91.0821 30.1691 91.1796 31.1261C91.1796 35.3094 94.1552 38.1454 98.0517 38.1454C101.948 38.1454 104.853 35.3094 104.853 31.1261Z" fill="#283745"/>
<path d="M131.987 27.4392C131.987 28.5127 131.774 29.5755 131.359 30.5655C130.944 31.5555 130.337 32.453 129.572 33.2054C128.807 33.9578 127.9 34.5503 126.903 34.948C125.907 35.3458 124.841 35.5409 123.769 35.5221H120.227V42.896H114.842V19.3563H123.769C124.841 19.3375 125.907 19.5327 126.903 19.9304C127.9 20.3282 128.807 20.9206 129.572 21.673C130.337 22.4255 130.944 23.3229 131.359 24.3129C131.774 25.303 131.987 26.3657 131.987 27.4392ZM126.603 27.4392C126.622 27.0516 126.563 26.6641 126.43 26.2996C126.297 25.935 126.093 25.6008 125.828 25.3167C125.564 25.0325 125.246 24.8042 124.892 24.6451C124.539 24.486 124.157 24.3994 123.769 24.3904H120.227V30.488H123.769C124.157 30.479 124.539 30.3924 124.892 30.2334C125.246 30.0743 125.564 29.8459 125.828 29.5618C126.093 29.2776 126.297 28.9434 126.43 28.5789C126.563 28.2143 126.622 27.8268 126.603 27.4392Z" fill="#283745"/>
<path d="M147.432 39.209H138.718L137.584 42.8959H131.704L139.639 19.3563H146.511L154.516 42.8959H148.636L147.432 39.209ZM145.873 34.1749L143.11 25.5248L140.347 34.1749H145.873Z" fill="#283745"/>
<path d="M165.852 35.1675H163.301V42.8959H157.917V19.3563H167.34C169.482 19.3563 171.536 20.2079 173.051 21.7237C174.565 23.2396 175.416 25.2955 175.416 27.4392C175.392 28.862 174.975 30.2504 174.213 31.4514C173.45 32.6524 172.371 33.6194 171.095 34.2458L176.054 42.8959H170.315L165.852 35.1675ZM163.301 30.488H167.34C168.148 30.488 168.923 30.1668 169.494 29.595C170.065 29.0233 170.386 28.2478 170.386 27.4392C170.386 26.6306 170.065 25.8551 169.494 25.2834C168.923 24.7116 168.148 24.3904 167.34 24.3904H163.301V30.488Z" fill="#283745"/>
<path d="M193.34 42.896L187.956 33.3241L185.972 35.593V42.896H180.305V19.4982H185.972V27.7937L192.774 19.4982H199.787L191.782 28.9991L200 42.896H193.34Z" fill="#283745"/>
<path d="M64.0453 46.3701V48.9226H56.6773V51.9714H63.4786V54.3821H56.6773V57.7854H64.2579V60.4088H53.5601V46.3701H64.0453Z" fill="#283745"/>
<path d="M72.2635 46.3701C73.132 46.3618 73.9952 46.5058 74.814 46.7955C75.5836 47.066 76.2848 47.5016 76.8686 48.0717C77.4687 48.7 77.9276 49.4494 78.2146 50.2697C78.5198 51.2564 78.6633 52.286 78.6397 53.3185C78.6709 54.2766 78.5514 55.2337 78.2855 56.1546C78.0419 56.9848 77.6321 57.7567 77.0811 58.4235C76.5096 59.0294 75.8387 59.533 75.0974 59.9124C74.199 60.2782 73.2327 60.4474 72.2635 60.4088H66.2416V46.3701H72.2635ZM72.051 57.7854C72.5084 57.79 72.9634 57.718 73.3971 57.5727C73.8272 57.4327 74.2165 57.1893 74.5306 56.8636C74.8625 56.4867 75.1262 56.0549 75.3099 55.5874C75.6632 54.3145 75.6876 52.9727 75.3808 51.6878C75.2624 51.1435 75.0199 50.6339 74.6723 50.1988C74.3703 49.7795 73.9513 49.4589 73.4679 49.2771C72.8571 49.0437 72.2089 48.9235 71.5551 48.9226H69.288V57.7854H72.051Z" fill="#283745"/>
<path d="M91.0378 59.3452C89.7987 60.3442 88.2342 60.8493 86.6453 60.7633C85.0547 60.8632 83.4853 60.3565 82.2528 59.3452C81.1901 58.4235 80.6942 57.0055 80.6942 55.0911V46.3701H83.7406V55.0911C83.7531 55.4728 83.8005 55.8525 83.8823 56.2255C83.9258 56.5785 84.0467 56.9175 84.2365 57.2182C84.481 57.5095 84.799 57.7298 85.1575 57.8563C85.6197 58.0808 86.1331 58.1787 86.6453 58.1399C87.7789 58.1399 88.4873 57.9272 88.9124 57.4309C89.3932 56.7502 89.619 55.9218 89.55 55.0911V46.3701H92.6673V55.0911C92.6673 57.0055 92.1005 58.4235 91.0378 59.3452Z" fill="#283745"/>
<path d="M104.215 50.128C104.086 49.8095 103.864 49.5376 103.578 49.348C103.29 49.0919 102.952 48.8987 102.586 48.7808L101.523 48.639C100.915 48.6331 100.311 48.7538 99.752 48.9935C99.2698 49.2754 98.858 49.6633 98.5476 50.128C98.2515 50.5841 98.0358 51.0877 97.91 51.6169C97.7693 52.2213 97.698 52.8398 97.6974 53.4604C97.6985 54.0342 97.7699 54.6056 97.91 55.162C98.0358 55.6912 98.2515 56.1949 98.5476 56.651C98.858 57.1156 99.2698 57.5035 99.752 57.7854C100.311 58.0251 100.915 58.1458 101.523 58.1399C101.929 58.164 102.335 58.1005 102.714 57.9537C103.093 57.8069 103.436 57.5802 103.719 57.2891C104.283 56.658 104.631 55.863 104.711 55.0202H107.687C107.616 55.8241 107.425 56.6128 107.12 57.36C106.796 58.0566 106.339 58.6828 105.774 59.2035C105.243 59.7024 104.616 60.0883 103.932 60.3379C103.161 60.6227 102.345 60.7668 101.523 60.7633C100.527 60.7671 99.54 60.5743 98.6184 60.1961C97.8056 59.8006 97.0636 59.2735 96.4222 58.6362C95.8361 57.944 95.38 57.1513 95.0761 56.2965C94.7622 55.3832 94.5949 54.426 94.5802 53.4604C94.595 52.4484 94.7622 51.4445 95.0761 50.4825C95.4121 49.6428 95.8653 48.8551 96.4222 48.1427C97.0443 47.4829 97.7907 46.9527 98.6184 46.5828C99.54 46.2046 100.527 46.0119 101.523 46.0156C102.271 45.9893 103.017 46.1097 103.719 46.3701C104.385 46.5607 105.01 46.8732 105.561 47.2919C106.12 47.7339 106.579 48.2898 106.908 48.9226C107.26 49.5876 107.499 50.3064 107.616 51.0497H104.57C104.56 50.7111 104.435 50.3859 104.215 50.128Z" fill="#283745"/>
<path d="M116.755 46.3701L121.998 60.4088H118.81L117.747 57.2891H112.434L111.371 60.4088H108.254L113.567 46.3701H116.755ZM116.897 54.9493L115.126 49.8443L113.284 54.9493H116.897Z" fill="#283745"/>
<path d="M132.129 50.128C131.97 49.8068 131.725 49.5365 131.42 49.348C131.17 49.08 130.852 48.8842 130.499 48.7808L129.437 48.639C128.828 48.6331 128.225 48.7538 127.666 48.9935C127.169 49.2562 126.753 49.6482 126.461 50.128C126.165 50.5841 125.949 51.0877 125.824 51.6169C125.683 52.2213 125.612 52.8398 125.611 53.4604C125.612 54.0342 125.683 54.6056 125.824 55.162C125.949 55.6912 126.165 56.1949 126.461 56.651C126.753 57.1308 127.169 57.5227 127.666 57.7854C128.225 58.0251 128.828 58.1459 129.437 58.14C129.842 58.164 130.248 58.1005 130.627 57.9537C131.006 57.8069 131.349 57.5802 131.633 57.2891C132.197 56.658 132.544 55.863 132.625 55.0202H135.6C135.539 55.8338 135.323 56.6281 134.963 57.36C134.688 58.0663 134.251 58.6978 133.687 59.2035C133.139 59.6785 132.517 60.0616 131.846 60.3379C131.083 60.5608 130.3 60.7034 129.508 60.7633L128.941 61.4724H129.012L129.649 61.3306H130.358C130.566 61.3811 130.759 61.478 130.924 61.6142C131.1 61.7177 131.246 61.8641 131.35 62.0396C131.446 62.2383 131.494 62.4569 131.491 62.6777C131.505 62.9985 131.432 63.3171 131.279 63.5994C131.172 63.8521 131.001 64.0721 130.783 64.2375L130.003 64.5212L129.153 64.663H127.807L127.24 64.5212L126.745 64.3084L127.17 63.3867L127.878 63.6703H128.799C128.998 63.677 129.194 63.6278 129.366 63.5285C129.435 63.4664 129.49 63.3897 129.527 63.304C129.564 63.2182 129.581 63.1255 129.578 63.0322C129.578 62.7486 129.508 62.6068 129.366 62.5359C129.202 62.4169 128.999 62.366 128.799 62.3941C128.531 62.3663 128.261 62.4154 128.02 62.5359L127.595 62.0396L128.587 60.6924C127.666 60.6275 126.771 60.3613 125.965 59.9125C125.26 59.5118 124.635 58.9828 124.123 58.3526C123.572 57.6859 123.162 56.914 122.919 56.0838C122.628 55.2401 122.484 54.3527 122.494 53.4604C122.474 52.4456 122.642 51.436 122.99 50.4825C123.298 49.6295 123.753 48.8375 124.336 48.1427C124.944 47.4671 125.694 46.9344 126.532 46.5828C127.454 46.2046 128.441 46.0119 129.437 46.0156C130.185 45.9893 130.931 46.1097 131.633 46.3701C132.299 46.5607 132.923 46.8732 133.475 47.2919C134.034 47.7339 134.493 48.2898 134.821 48.9226C135.181 49.5788 135.398 50.3037 135.459 51.0497H132.483C132.442 50.7182 132.32 50.4018 132.129 50.128Z" fill="#283745"/>
<path d="M144.598 46.3702L149.911 60.4088H146.652L145.59 57.2891H140.347L139.284 60.4088H136.167L141.481 46.3702H144.598ZM145.377 44.4558C145.624 44.3088 145.84 44.1163 146.015 43.8886C146.175 43.6498 146.294 43.3863 146.369 43.1087C146.506 42.7913 146.601 42.4577 146.652 42.116H145.377C145.34 42.35 145.243 42.5701 145.094 42.7541C145.018 42.8256 144.929 42.8813 144.832 42.9178C144.735 42.9543 144.631 42.971 144.527 42.9668L143.889 42.8251L143.181 42.5415L142.472 42.2578L141.693 42.116C141.374 42.1116 141.058 42.1846 140.772 42.3287C140.51 42.4853 140.291 42.7046 140.135 42.9668C139.929 43.1987 139.761 43.462 139.639 43.7468C139.502 44.0349 139.429 44.3495 139.426 44.6685H140.63C140.705 44.4126 140.825 44.1724 140.985 43.9595C141.051 43.8714 141.136 43.8 141.235 43.7507C141.333 43.7015 141.441 43.6759 141.551 43.6759L142.189 43.8177L142.898 44.1722C143.11 44.3324 143.35 44.4525 143.606 44.5267L144.456 44.6685C144.776 44.6729 145.092 44.5999 145.377 44.4558ZM144.81 54.9494L143.039 49.8444H142.968L141.197 54.9494H144.81Z" fill="#283745"/>
<path d="M150.903 50.4825C151.184 49.6171 151.643 48.8201 152.249 48.1427C152.844 47.4516 153.598 46.9161 154.446 46.5828C155.365 46.1972 156.354 46.0041 157.35 46.0156C158.346 46.0119 159.333 46.2046 160.255 46.5828C161.071 46.9373 161.797 47.4703 162.38 48.1427C162.987 48.8201 163.446 49.6171 163.727 50.4825C164.074 51.436 164.242 52.4456 164.222 53.4604C164.243 54.429 164.075 55.3924 163.727 56.2965C163.478 57.1757 163.015 57.9796 162.38 58.6362C161.779 59.2886 161.057 59.8183 160.255 60.1961C159.333 60.5743 158.346 60.7671 157.35 60.7633C156.354 60.7748 155.365 60.5817 154.446 60.1961C153.612 59.8367 152.864 59.3051 152.249 58.6362C151.614 57.9796 151.152 57.1757 150.903 56.2965C150.555 55.3924 150.387 54.429 150.407 53.4604C150.388 52.4456 150.556 51.436 150.903 50.4825ZM153.666 55.162C153.815 55.6954 154.055 56.1991 154.375 56.651C154.659 57.1125 155.047 57.501 155.508 57.7854C156.093 58.025 156.719 58.1456 157.35 58.1399C157.958 58.1381 158.56 58.0177 159.121 57.7854C159.583 57.501 159.971 57.1125 160.255 56.651C160.575 56.1991 160.815 55.6954 160.963 55.162C161.046 54.5983 161.093 54.03 161.105 53.4604C161.093 52.8437 161.046 52.2282 160.963 51.6169C160.815 51.0836 160.575 50.5799 160.255 50.128C159.971 49.6665 159.583 49.278 159.121 48.9935C158.56 48.7613 157.958 48.6408 157.35 48.639C156.719 48.6334 156.093 48.7539 155.508 48.9935C155.047 49.278 154.659 49.6665 154.375 50.128C154.055 50.5799 153.815 51.0836 153.666 51.6169C153.584 52.2282 153.537 52.8437 153.525 53.4604C153.537 54.03 153.584 54.5983 153.666 55.162Z" fill="#283745"/>
</svg>
